<mxfile host="app.diagrams.net" modified="2021-08-23T03:35:51.539Z" agent="5.0 (Windows NT 10.0; Win64; x64) AppleWebKit/537.36 (KHTML, like Gecko) Chrome/92.0.4515.159 Safari/537.36" etag="f3rnqoszF8MsFWRguIG2" version="14.9.7" type="github">
  <diagram id="mpvuigmmcVtbqXgq98YU" name="Page-1">
    <mxGraphModel dx="1209" dy="626" grid="1" gridSize="10" guides="1" tooltips="1" connect="1" arrows="1" fold="1" page="1" pageScale="1" pageWidth="850" pageHeight="1100" math="0" shadow="0">
      <root>
        <mxCell id="0" />
        <mxCell id="1" parent="0" />
        <mxCell id="Baq55BOmd1Z1qYM5Lc8m-1" value="workstation" style="rounded=1;whiteSpace=wrap;html=1;" vertex="1" parent="1">
          <mxGeometry x="80" y="330" width="120" height="60" as="geometry" />
        </mxCell>
        <mxCell id="Baq55BOmd1Z1qYM5Lc8m-2" value="stagging area" style="rounded=1;whiteSpace=wrap;html=1;" vertex="1" parent="1">
          <mxGeometry x="310" y="330" width="120" height="60" as="geometry" />
        </mxCell>
        <mxCell id="Baq55BOmd1Z1qYM5Lc8m-3" value="local repo" style="rounded=1;whiteSpace=wrap;html=1;" vertex="1" parent="1">
          <mxGeometry x="540" y="330" width="120" height="60" as="geometry" />
        </mxCell>
        <mxCell id="Baq55BOmd1Z1qYM5Lc8m-4" value="add.txt" style="text;html=1;strokeColor=none;fillColor=none;align=center;verticalAlign=middle;whiteSpace=wrap;rounded=0;" vertex="1" parent="1">
          <mxGeometry x="110" y="430" width="40" height="20" as="geometry" />
        </mxCell>
        <mxCell id="Baq55BOmd1Z1qYM5Lc8m-5" value="" style="endArrow=none;html=1;entryX=0;entryY=0.5;entryDx=0;entryDy=0;" edge="1" parent="1" source="Baq55BOmd1Z1qYM5Lc8m-1" target="Baq55BOmd1Z1qYM5Lc8m-2">
          <mxGeometry width="50" height="50" relative="1" as="geometry">
            <mxPoint x="200" y="410" as="sourcePoint" />
            <mxPoint x="270.71067811865476" y="360" as="targetPoint" />
          </mxGeometry>
        </mxCell>
        <mxCell id="Baq55BOmd1Z1qYM5Lc8m-6" value="add.txt +index&amp;nbsp;" style="text;html=1;strokeColor=none;fillColor=none;align=center;verticalAlign=middle;whiteSpace=wrap;rounded=0;" vertex="1" parent="1">
          <mxGeometry x="320" y="410" width="100" height="20" as="geometry" />
        </mxCell>
        <mxCell id="Baq55BOmd1Z1qYM5Lc8m-7" value="tracking area&amp;nbsp;" style="text;html=1;strokeColor=none;fillColor=none;align=center;verticalAlign=middle;whiteSpace=wrap;rounded=0;" vertex="1" parent="1">
          <mxGeometry x="340" y="450" width="40" height="20" as="geometry" />
        </mxCell>
        <mxCell id="Baq55BOmd1Z1qYM5Lc8m-8" value="unstagging or untrack area&amp;nbsp;" style="text;html=1;strokeColor=none;fillColor=none;align=center;verticalAlign=middle;whiteSpace=wrap;rounded=0;" vertex="1" parent="1">
          <mxGeometry x="80" y="460" width="170" height="20" as="geometry" />
        </mxCell>
        <mxCell id="Baq55BOmd1Z1qYM5Lc8m-9" value="git commmit&amp;nbsp;" style="text;html=1;strokeColor=none;fillColor=none;align=center;verticalAlign=middle;whiteSpace=wrap;rounded=0;" vertex="1" parent="1">
          <mxGeometry x="305" y="490" width="130" height="20" as="geometry" />
        </mxCell>
        <mxCell id="Baq55BOmd1Z1qYM5Lc8m-10" value="" style="endArrow=none;html=1;entryX=0;entryY=0.5;entryDx=0;entryDy=0;" edge="1" parent="1" source="Baq55BOmd1Z1qYM5Lc8m-2" target="Baq55BOmd1Z1qYM5Lc8m-3">
          <mxGeometry width="50" height="50" relative="1" as="geometry">
            <mxPoint x="430" y="410" as="sourcePoint" />
            <mxPoint x="500.71067811865476" y="360" as="targetPoint" />
          </mxGeometry>
        </mxCell>
        <mxCell id="Baq55BOmd1Z1qYM5Lc8m-11" value="add.txt" style="text;html=1;strokeColor=none;fillColor=none;align=center;verticalAlign=middle;whiteSpace=wrap;rounded=0;" vertex="1" parent="1">
          <mxGeometry x="570" y="410" width="60" height="20" as="geometry" />
        </mxCell>
        <mxCell id="Baq55BOmd1Z1qYM5Lc8m-12" value="git hub/repo" style="rounded=1;whiteSpace=wrap;html=1;" vertex="1" parent="1">
          <mxGeometry x="720" y="330" width="120" height="60" as="geometry" />
        </mxCell>
        <mxCell id="Baq55BOmd1Z1qYM5Lc8m-13" value="" style="endArrow=none;html=1;entryX=0;entryY=0.5;entryDx=0;entryDy=0;exitX=1;exitY=0.5;exitDx=0;exitDy=0;" edge="1" parent="1" source="Baq55BOmd1Z1qYM5Lc8m-3" target="Baq55BOmd1Z1qYM5Lc8m-12">
          <mxGeometry width="50" height="50" relative="1" as="geometry">
            <mxPoint x="670" y="360" as="sourcePoint" />
            <mxPoint x="710" y="360" as="targetPoint" />
          </mxGeometry>
        </mxCell>
        <mxCell id="Baq55BOmd1Z1qYM5Lc8m-14" value="git init&amp;nbsp;" style="text;html=1;strokeColor=none;fillColor=none;align=center;verticalAlign=middle;whiteSpace=wrap;rounded=0;" vertex="1" parent="1">
          <mxGeometry x="120" y="510" width="40" height="20" as="geometry" />
        </mxCell>
        <mxCell id="Baq55BOmd1Z1qYM5Lc8m-15" value="git push&amp;nbsp;" style="text;html=1;strokeColor=none;fillColor=none;align=center;verticalAlign=middle;whiteSpace=wrap;rounded=0;" vertex="1" parent="1">
          <mxGeometry x="560" y="450" width="100" height="20" as="geometry" />
        </mxCell>
        <mxCell id="Baq55BOmd1Z1qYM5Lc8m-16" value="test.txt" style="text;html=1;strokeColor=none;fillColor=none;align=center;verticalAlign=middle;whiteSpace=wrap;rounded=0;" vertex="1" parent="1">
          <mxGeometry x="750" y="280" width="40" height="20" as="geometry" />
        </mxCell>
      </root>
    </mxGraphModel>
  </diagram>
</mxfile>
